{
    "accessors" : [
        {
            "bufferView" : 0, 
            "componentType" : 5121, 
            "count" : 216, 
            "max" : [
                135
            ], 
            "min" : [
                0
            ], 
            "type" : "SCALAR"
        }, 
        {
            "bufferView" : 1, 
            "componentType" : 5126, 
            "count" : 136, 
            "max" : [
                1.100000023841858, 
                1.0, 
                1.0
            ], 
            "min" : [
                -1.100000023841858, 
                -1.0, 
                -1.0
            ], 
            "type" : "VEC3"
        }, 
        {
            "bufferView" : 2, 
            "componentType" : 5126, 
            "count" : 136, 
            "max" : [
                1.0, 
                1.0, 
                0.4103647768497467
            ], 
            "min" : [
                -1.0, 
                -1.0, 
                -0.4103647768497467
            ], 
            "type" : "VEC3"
        }, 
        {
            "bufferView" : 3, 
            "componentType" : 5121, 
            "count" : 24, 
            "max" : [
                15
            ], 
            "min" : [
                0
            ], 
            "type" : "SCALAR"
        }, 
        {
            "bufferView" : 4, 
            "componentType" : 5126, 
            "count" : 16, 
            "max" : [
                1.0, 
                1.0, 
                1.0
            ], 
            "min" : [
                -1.0, 
                -1.0, 
                -1.0
            ], 
            "type" : "VEC3"
        }, 
        {
            "bufferView" : 5, 
            "componentType" : 5126, 
            "count" : 16, 
            "max" : [
                1.0, 
                1.0, 
                -0.0
            ], 
            "min" : [
                -1.0, 
                -1.0, 
                -0.0
            ], 
            "type" : "VEC3"
        }, 
        {
            "bufferView" : 6, 
            "componentType" : 5121, 
            "count" : 54, 
            "max" : [
                35
            ], 
            "min" : [
                0
            ], 
            "type" : "SCALAR"
        }, 
        {
            "bufferView" : 7, 
            "componentType" : 5126, 
            "count" : 36, 
            "max" : [
                1.0, 
                0.5, 
                1.0
            ], 
            "min" : [
                -1.0, 
                0.0, 
                -1.0
            ], 
            "type" : "VEC3"
        }, 
        {
            "bufferView" : 8, 
            "componentType" : 5126, 
            "count" : 36, 
            "max" : [
                1.0, 
                1.0, 
                1.0
            ], 
            "min" : [
                -1.0, 
                -0.0, 
                -1.0
            ], 
            "type" : "VEC3"
        }, 
        {
            "bufferView" : 9, 
            "componentType" : 5121, 
            "count" : 156, 
            "max" : [
                63
            ], 
            "min" : [
                0
            ], 
            "type" : "SCALAR"
        }, 
        {
            "bufferView" : 10, 
            "componentType" : 5126, 
            "count" : 64, 
            "max" : [
                1.0, 
                0.75, 
                1.0
            ], 
            "min" : [
                -1.0, 
                0.0, 
                -1.0
            ], 
            "type" : "VEC3"
        }, 
        {
            "bufferView" : 11, 
            "componentType" : 5126, 
            "count" : 64, 
            "max" : [
                1.0, 
                1.0, 
                1.0
            ], 
            "min" : [
                -1.0, 
                -1.0, 
                -1.0
            ], 
            "type" : "VEC3"
        }, 
        {
            "bufferView" : 12, 
            "componentType" : 5121, 
            "count" : 540, 
            "max" : [
                200
            ], 
            "min" : [
                0
            ], 
            "type" : "SCALAR"
        }, 
        {
            "bufferView" : 13, 
            "componentType" : 5126, 
            "count" : 201, 
            "max" : [
                1.0, 
                0.0, 
                1.0
            ], 
            "min" : [
                -1.0, 
                -0.25, 
                -1.0
            ], 
            "type" : "VEC3"
        }, 
        {
            "bufferView" : 14, 
            "componentType" : 5126, 
            "count" : 201, 
            "max" : [
                1.0, 
                1.0, 
                1.0
            ], 
            "min" : [
                -1.0, 
                0.0, 
                -1.0
            ], 
            "type" : "VEC3"
        }, 
        {
            "bufferView" : 15, 
            "componentType" : 5123, 
            "count" : 2346, 
            "max" : [
                1029
            ], 
            "min" : [
                0
            ], 
            "type" : "SCALAR"
        }, 
        {
            "bufferView" : 16, 
            "componentType" : 5126, 
            "count" : 1030, 
            "max" : [
                1.0, 
                0.625, 
                1.0
            ], 
            "min" : [
                -1.0, 
                0.0, 
                -1.0
            ], 
            "type" : "VEC3"
        }, 
        {
            "bufferView" : 17, 
            "componentType" : 5126, 
            "count" : 1030, 
            "max" : [
                1.0, 
                1.0, 
                1.0
            ], 
            "min" : [
                -1.0, 
                -1.0, 
                -1.0
            ], 
            "type" : "VEC3"
        }, 
        {
            "bufferView" : 18, 
            "componentType" : 5123, 
            "count" : 552, 
            "max" : [
                287
            ], 
            "min" : [
                0
            ], 
            "type" : "SCALAR"
        }, 
        {
            "bufferView" : 19, 
            "componentType" : 5126, 
            "count" : 288, 
            "max" : [
                1.000000238418579, 
                0.75, 
                1.0
            ], 
            "min" : [
                -1.000000238418579, 
                0.0, 
                -1.0
            ], 
            "type" : "VEC3"
        }, 
        {
            "bufferView" : 20, 
            "componentType" : 5126, 
            "count" : 288, 
            "max" : [
                0.9876883625984192, 
                1.0, 
                0.9876883625984192
            ], 
            "min" : [
                -0.9876883625984192, 
                -1.0, 
                -0.9876883625984192
            ], 
            "type" : "VEC3"
        }, 
        {
            "bufferView" : 21, 
            "componentType" : 5123, 
            "count" : 5262, 
            "max" : [
                2017
            ], 
            "min" : [
                0
            ], 
            "type" : "SCALAR"
        }, 
        {
            "bufferView" : 22, 
            "componentType" : 5126, 
            "count" : 2018, 
            "max" : [
                1.0, 
                0.5625, 
                1.999999761581421
            ], 
            "min" : [
                -1.0, 
                -0.25, 
                -2.000000238418579
            ], 
            "type" : "VEC3"
        }, 
        {
            "bufferView" : 23, 
            "componentType" : 5126, 
            "count" : 2018, 
            "max" : [
                1.0, 
                1.0, 
                1.0
            ], 
            "min" : [
                -1.0, 
                -1.0, 
                -1.0
            ], 
            "type" : "VEC3"
        }
    ], 
    "asset" : {
        "generator" : "Khronos Blender glTF 2.0 exporter", 
        "version" : "2.0"
    }, 
    "bufferViews" : [
        {
            "buffer" : 0, 
            "byteLength" : 216, 
            "byteOffset" : 0, 
            "target" : 34963
        }, 
        {
            "buffer" : 0, 
            "byteLength" : 1632, 
            "byteOffset" : 216, 
            "target" : 34962
        }, 
        {
            "buffer" : 0, 
            "byteLength" : 1632, 
            "byteOffset" : 1848, 
            "target" : 34962
        }, 
        {
            "buffer" : 0, 
            "byteLength" : 24, 
            "byteOffset" : 3480, 
            "target" : 34963
        }, 
        {
            "buffer" : 0, 
            "byteLength" : 192, 
            "byteOffset" : 3504, 
            "target" : 34962
        }, 
        {
            "buffer" : 0, 
            "byteLength" : 192, 
            "byteOffset" : 3696, 
            "target" : 34962
        }, 
        {
            "buffer" : 0, 
            "byteLength" : 54, 
            "byteOffset" : 3888, 
            "target" : 34963
        }, 
        {
            "buffer" : 0, 
            "byteLength" : 432, 
            "byteOffset" : 3944, 
            "target" : 34962
        }, 
        {
            "buffer" : 0, 
            "byteLength" : 432, 
            "byteOffset" : 4376, 
            "target" : 34962
        }, 
        {
            "buffer" : 0, 
            "byteLength" : 156, 
            "byteOffset" : 4808, 
            "target" : 34963
        }, 
        {
            "buffer" : 0, 
            "byteLength" : 768, 
            "byteOffset" : 4964, 
            "target" : 34962
        }, 
        {
            "buffer" : 0, 
            "byteLength" : 768, 
            "byteOffset" : 5732, 
            "target" : 34962
        }, 
        {
            "buffer" : 0, 
            "byteLength" : 540, 
            "byteOffset" : 6500, 
            "target" : 34963
        }, 
        {
            "buffer" : 0, 
            "byteLength" : 2412, 
            "byteOffset" : 7040, 
            "target" : 34962
        }, 
        {
            "buffer" : 0, 
            "byteLength" : 2412, 
            "byteOffset" : 9452, 
            "target" : 34962
        }, 
        {
            "buffer" : 0, 
            "byteLength" : 4692, 
            "byteOffset" : 11864, 
            "target" : 34963
        }, 
        {
            "buffer" : 0, 
            "byteLength" : 12360, 
            "byteOffset" : 16556, 
            "target" : 34962
        }, 
        {
            "buffer" : 0, 
            "byteLength" : 12360, 
            "byteOffset" : 28916, 
            "target" : 34962
        }, 
        {
            "buffer" : 0, 
            "byteLength" : 1104, 
            "byteOffset" : 41276, 
            "target" : 34963
        }, 
        {
            "buffer" : 0, 
            "byteLength" : 3456, 
            "byteOffset" : 42380, 
            "target" : 34962
        }, 
        {
            "buffer" : 0, 
            "byteLength" : 3456, 
            "byteOffset" : 45836, 
            "target" : 34962
        }, 
        {
            "buffer" : 0, 
            "byteLength" : 10524, 
            "byteOffset" : 49292, 
            "target" : 34963
        }, 
        {
            "buffer" : 0, 
            "byteLength" : 24216, 
            "byteOffset" : 59816, 
            "target" : 34962
        }, 
        {
            "buffer" : 0, 
            "byteLength" : 24216, 
            "byteOffset" : 84032, 
            "target" : 34962
        }
    ], 
    "buffers" : [
        {
            "byteLength" : 108248, 
            "uri" : "RoomsAndCorridors.bin"
        }
    ], 
    "meshes" : [
        {
            "name" : "Cube.000", 
            "primitives" : [
                {
                    "attributes" : {
                        "NORMAL" : 2, 
                        "POSITION" : 1
                    }, 
                    "indices" : 0
                }
            ]
        }, 
        {
            "name" : "Cube.001", 
            "primitives" : [
                {
                    "attributes" : {
                        "NORMAL" : 5, 
                        "POSITION" : 4
                    }, 
                    "indices" : 3
                }
            ]
        }, 
        {
            "name" : "Plane", 
            "primitives" : [
                {
                    "attributes" : {
                        "NORMAL" : 8, 
                        "POSITION" : 7
                    }, 
                    "indices" : 6
                }
            ]
        }, 
        {
            "name" : "Plane.001", 
            "primitives" : [
                {
                    "attributes" : {
                        "NORMAL" : 11, 
                        "POSITION" : 10
                    }, 
                    "indices" : 9
                }
            ]
        }, 
        {
            "name" : "Plane.003", 
            "primitives" : [
                {
                    "attributes" : {
                        "NORMAL" : 14, 
                        "POSITION" : 13
                    }, 
                    "indices" : 12
                }
            ]
        }, 
        {
            "name" : "Plane.004", 
            "primitives" : [
                {
                    "attributes" : {
                        "NORMAL" : 17, 
                        "POSITION" : 16
                    }, 
                    "indices" : 15
                }
            ]
        }, 
        {
            "name" : "Plane.012", 
            "primitives" : [
                {
                    "attributes" : {
                        "NORMAL" : 20, 
                        "POSITION" : 19
                    }, 
                    "indices" : 18
                }
            ]
        }, 
        {
            "name" : "Plane.013", 
            "primitives" : [
                {
                    "attributes" : {
                        "NORMAL" : 23, 
                        "POSITION" : 22
                    }, 
                    "indices" : 21
                }
            ]
        }
    ], 
    "nodes" : [
        {
            "mesh" : 1, 
            "name" : "corridorI", 
            "scale" : [
                2.0, 
                2.0, 
                8.0
            ], 
            "translation" : [
                0.0, 
                2.0, 
                20.0
            ]
        }, 
        {
            "mesh" : 0, 
            "name" : "corridorI.001", 
            "scale" : [
                2.0, 
                2.0, 
                8.0
            ], 
            "translation" : [
                -10.0, 
                2.0, 
                20.0
            ]
        }, 
        {
            "mesh" : 2, 
            "name" : "room2x2", 
            "scale" : [
                8.0, 
                8.0, 
                8.0
            ]
        }, 
        {
            "mesh" : 3, 
            "name" : "room2x2.001", 
            "scale" : [
                8.0, 
                8.0, 
                8.0
            ], 
            "translation" : [
                -20.0, 
                0.0, 
                -0.0
            ]
        }, 
        {
            "mesh" : 6, 
            "name" : "room2x2.002", 
            "scale" : [
                8.0, 
                8.0, 
                8.0
            ], 
            "translation" : [
                -20.0, 
                0.0, 
                -20.68537712097168
            ]
        }, 
        {
            "mesh" : 4, 
            "name" : "room4x4", 
            "scale" : [
                16.0, 
                16.0, 
                16.0
            ], 
            "translation" : [
                32.0, 
                0.0, 
                -0.0
            ]
        }, 
        {
            "mesh" : 5, 
            "name" : "room4x4.001", 
            "scale" : [
                16.0, 
                16.0, 
                16.0
            ], 
            "translation" : [
                67.98411560058594, 
                0.0, 
                -0.0
            ]
        }, 
        {
            "mesh" : 7, 
            "name" : "room4x8", 
            "scale" : [
                16.0, 
                16.0, 
                16.0
            ], 
            "translation" : [
                67.98411560058594, 
                0.0, 
                -51.50754928588867
            ]
        }
    ], 
    "scene" : 0, 
    "scenes" : [
        {
            "name" : "Scene", 
            "nodes" : [
                7, 
                4, 
                6, 
                5, 
                1, 
                3, 
                0, 
                2
            ]
        }
    ]
}
